# xmcd
#
# Track frame offsets:
#	150
#	17042
#	32816
#	44544
#	61525
#	75614
#	92593
#	109328
#	126495
#	141909
#	151187
#	166254
#	184693
#	199162
#	215309
#	231694
#	248853
#	266490
#
# Disc length: 3750 seconds
#
# Revision: 1
# Processed by: cddbd v1.5.1PL0 Copyright (c) Steve Scherf et al.
# Submitted via: audiograbber 1.83.01
#
DISCID=fa0ea412
DTITLE=Back Beat - 1517
DYEAR=1900
DGENRE=
TTITLE0=Ayman feat Keiith Sweat - The Letter
TTITLE1=BB Mak - Still On Your Side(Z1 remix final)
TTITLE2=Canella - Sponsor (I need i need i need)
TTITLE3=Collective Soul feat Elton John - Perfect day
TTITLE4=Dario G - Dream To Me
TTITLE5=EBTG vs Soul Vision - Tracey In My Room(lazy dog bootleg remix)
TTITLE6=Enya - Oiche Chiun(silent night)
TTITLE7=Everclear - AM Radio(remix - no media intro)
TTITLE8=Five For Fighting - Easy Tunight
TTITLE9=Jessica Simpson and Rosi O'donnele - Rockin' Around The Christmas Tree
TTITLE10=Mis-Teeq - Why (UK garage radio edit)
TTITLE11=Pink - You Make Me Sick
TTITLE12=Plasma - Do Ypu Believe
TTITLE13=Snoopdog - Snoop dog (clean)
TTITLE14=South Park Mexican - Oh My, My
TTITLE15=Steffen - Gonna Lose You
TTITLE16=Tevin Campbell - Round And Round
TTITLE17=Yannick - Oh What A Night
EXTD=
EXTT0=
EXTT1=
EXTT2=
EXTT3=
EXTT4=
EXTT5=
EXTT6=
EXTT7=
EXTT8=
EXTT9=
EXTT10=
EXTT11=
EXTT12=
EXTT13=
EXTT14=
EXTT15=
EXTT16=
EXTT17=
PLAYORDER=
